<svg xmlns="http://www.w3.org/2000/svg" viewBox="0 0 64 64">
  <defs>
    <linearGradient id="g" x1="0" y1="0" x2="1" y2="1">
      <stop offset="0" stop-color="#ff8a3d"/>
      <stop offset="1" stop-color="#c84b00"/>
    </linearGradient>
  </defs>
  <circle cx="32" cy="32" r="30" fill="#0a0908"/>
  <circle cx="32" cy="32" r="29" fill="none" stroke="url(#g)" stroke-width="3"/>
  <path d="M32 14c-8 0-13 6-13 13 0 5 2.5 8.5 6 11l-3 12h4l2.6-10.4c1.1.3 2.2.4 3.4.4 8 0 13-6 13-13S40 14 32 14zm0 22c-5 0-9-4-9-9s4-9 9-9 9 4 9 9-4 9-9 9z" fill="url(#g)"/>
</svg>
